<?xml version="1.0" standalone="no"?>
<!DOCTYPE svg PUBLIC "-//W3C//DTD SVG 20010904//EN"
 "http://www.w3.org/TR/2001/REC-SVG-20010904/DTD/svg10.dtd">
<svg version="1.0" xmlns="http://www.w3.org/2000/svg"
 width="1850.000000pt" height="944.000000pt" viewBox="0 0 1850.000000 944.000000"
 preserveAspectRatio="xMidYMid meet">
<metadata>
Created by potrace 1.16, written by Peter Selinger 2001-2019
</metadata>
<g transform="translate(0.000000,944.000000) scale(0.100000,-0.100000)"
fill="#000000" stroke="none">
<path d="M0 4720 l0 -4720 9250 0 9250 0 0 25 0 25 -9240 0 -9240 0 0 4685 0
4685 9240 0 c6153 0 9240 3 9240 10 0 7 -3090 10 -9250 10 l-9250 0 0 -4720z"/>
<path d="M8134 9281 c-5 -5 -22 -11 -39 -13 -26 -3 -30 -8 -33 -36 -2 -22 2
-34 12 -38 20 -8 20 -28 0 -44 -19 -17 -14 -60 9 -74 38 -24 78 44 43 74 -20
16 -20 36 0 44 10 4 14 16 13 33 -2 16 0 34 5 41 10 16 3 25 -10 13z m-9 -41
c8 -26 -1 -40 -26 -40 -22 0 -34 22 -25 45 8 22 44 18 51 -5z m-1 -112 c16
-26 -16 -57 -38 -38 -17 13 -21 42 -9 54 11 11 35 3 47 -16z"/>
<path d="M370 9230 c-44 -44 -10 -120 55 -120 22 0 41 8 55 22 28 30 26 46 -5
40 -35 -6 -68 24 -60 55 7 29 -17 31 -45 3z m30 -17 c0 -25 30 -53 57 -53 30
0 30 -17 -1 -31 -56 -26 -112 23 -88 76 13 28 32 33 32 8z"/>
<path d="M8503 9180 c0 -41 2 -58 4 -37 2 20 2 54 0 75 -2 20 -4 3 -4 -38z"/>
<path d="M9610 9180 c0 -40 4 -70 10 -70 6 0 10 6 10 14 0 27 22 29 41 5 10
-13 20 -21 24 -18 3 3 -3 17 -14 30 -19 24 -19 24 1 47 12 12 17 22 11 22 -5
0 -18 -9 -28 -20 -27 -29 -35 -25 -35 20 0 22 -4 40 -10 40 -6 0 -10 -30 -10
-70z"/>
<path d="M8252 9224 c-32 -22 -30 -78 3 -100 35 -23 85 -11 85 22 0 13 -4 24
-10 24 -5 0 -10 -9 -10 -20 0 -16 -7 -20 -30 -20 -38 0 -57 31 -41 67 10 21
17 24 46 21 36 -4 47 5 19 16 -24 9 -38 7 -62 -10z"/>
<path d="M8910 9175 c0 -74 17 -89 22 -19 l3 46 34 -46 c19 -25 38 -46 43 -46
4 0 8 29 8 65 0 74 -17 89 -22 18 l-3 -47 -35 47 c-19 25 -38 47 -42 47 -5 0
-8 -29 -8 -65z"/>
<path d="M9790 9225 c-19 -23 -8 -48 28 -57 46 -12 44 -42 -3 -36 -40 5 -48
-8 -11 -18 30 -7 68 12 64 33 -3 14 -15 23 -57 42 -23 11 -13 26 21 31 26 4
29 7 15 13 -28 11 -43 9 -57 -8z"/>
<path d="M698 9223 c7 -3 16 -2 19 1 4 3 -2 6 -13 5 -11 0 -14 -3 -6 -6z"/>
<path d="M1998 9223 c7 -3 16 -2 19 1 4 3 -2 6 -13 5 -11 0 -14 -3 -6 -6z"/>
<path d="M9171 9213 c-9 -10 -10 -17 -3 -22 6 -3 12 -22 14 -41 2 -24 9 -36
21 -38 9 -2 17 1 17 7 0 6 -7 11 -15 11 -10 0 -15 10 -15 30 0 20 5 30 15 30
8 0 15 5 15 10 0 6 -6 10 -14 10 -8 0 -16 4 -18 9 -1 5 -9 2 -17 -6z"/>
<path d="M9897 9218 c-6 -18 4 -81 16 -95 11 -15 37 -17 37 -3 0 6 -7 10 -15
10 -19 0 -21 56 -3 62 9 3 8 9 -4 21 -20 20 -25 21 -31 5z"/>
<path d="M10087 9218 c-6 -18 4 -81 16 -95 11 -15 37 -17 37 -3 0 6 -7 10 -15
10 -19 0 -21 56 -3 62 9 3 8 9 -4 21 -20 20 -25 21 -31 5z"/>
<path d="M16326 9221 c-4 -5 2 -7 13 -4 31 8 33 -13 5 -46 l-26 -31 34 1 c23
1 26 3 10 6 l-22 4 20 26 c15 20 17 29 9 39 -13 16 -35 18 -43 5z"/>
<path d="M16412 9197 l-22 -32 22 -4 c13 -1 25 -7 28 -11 3 -4 10 -2 16 4 8 9
7 15 -3 24 -8 8 -13 9 -13 2 0 -5 -7 -10 -15 -10 -19 0 -19 9 2 32 9 10 14 20
12 22 -2 3 -14 -10 -27 -27z"/>
<path d="M16532 9197 l-22 -32 22 -4 c13 -1 25 -7 28 -11 3 -4 10 -2 16 4 8 9
7 15 -3 24 -8 8 -13 9 -13 2 0 -5 -7 -10 -15 -10 -19 0 -19 9 2 32 9 10 14 20
12 22 -2 3 -14 -10 -27 -27z"/>
<path d="M16606 9221 c-4 -5 2 -7 13 -4 31 8 33 -13 5 -46 l-26 -31 34 1 c23
1 26 3 10 6 l-22 4 20 26 c15 20 17 29 9 39 -13 16 -35 18 -43 5z"/>
<path d="M16713 9219 c23 -13 22 -29 -2 -29 -11 0 -22 8 -24 18 -2 9 -4 -1 -3
-23 1 -36 4 -40 26 -40 22 0 25 5 27 35 1 33 -10 50 -32 50 -5 -1 -2 -5 8 -11z
m17 -54 c0 -8 -9 -15 -20 -15 -11 0 -20 7 -20 15 0 8 9 15 20 15 11 0 20 -7
20 -15z"/>
<path d="M16800 9221 c0 -5 9 -7 20 -4 11 3 20 7 20 9 0 2 -9 4 -20 4 -11 0
-20 -4 -20 -9z"/>
<path d="M16870 9211 c0 -12 9 -20 25 -23 13 -3 22 -1 19 3 -3 5 -12 9 -20 9
-23 0 -16 18 9 23 19 4 18 4 -5 6 -21 1 -28 -4 -28 -18z"/>
<path d="M16951 9221 c-19 -12 -6 -41 19 -41 27 0 26 -18 -2 -30 -14 -5 -17
-9 -7 -9 8 -1 20 4 27 11 17 17 15 65 -4 72 -19 7 -16 8 -33 -3z m37 -19 c2
-7 -6 -12 -17 -12 -21 0 -27 11 -14 24 9 9 26 2 31 -12z"/>
<path d="M17168 9223 c6 -2 18 -2 25 0 6 3 1 5 -13 5 -14 0 -19 -2 -12 -5z"/>
<path d="M858 9203 c7 -3 16 -2 19 1 4 3 -2 6 -13 5 -11 0 -14 -3 -6 -6z"/>
<path d="M1568 9203 c7 -3 16 -2 19 1 4 3 -2 6 -13 5 -11 0 -14 -3 -6 -6z"/>
<path d="M1808 9203 c7 -3 16 -2 19 1 4 3 -2 6 -13 5 -11 0 -14 -3 -6 -6z"/>
<path d="M8386 9194 c-9 -8 -16 -24 -16 -34 0 -20 25 -50 41 -50 27 0 49 22
49 50 0 44 -44 64 -74 34z m59 -34 c0 -20 -6 -26 -26 -28 -28 -3 -43 16 -32
44 3 9 15 14 32 12 20 -2 26 -8 26 -28z"/>
<path d="M8556 9194 c-9 -8 -16 -23 -16 -33 0 -35 59 -67 75 -41 3 6 -5 10
-19 10 -14 0 -28 5 -31 10 -4 6 8 10 29 10 29 0 36 4 36 20 0 18 -26 40 -49
40 -5 0 -17 -7 -25 -16z m59 -14 c4 -6 -7 -10 -24 -10 -17 0 -31 5 -31 10 0 6
11 10 24 10 14 0 28 -4 31 -10z"/>
<path d="M8660 9158 c0 -57 17 -65 22 -10 2 30 7 38 26 40 20 3 22 -1 22 -37
0 -51 18 -54 22 -3 2 30 7 38 26 40 20 3 22 -1 22 -37 0 -23 5 -41 10 -41 15
0 12 77 -2 87 -7 4 -43 8 -80 8 l-68 1 0 -48z"/>
<path d="M9066 9194 c-9 -8 -16 -23 -16 -33 0 -35 59 -67 75 -41 3 6 -5 10
-19 10 -14 0 -28 5 -31 10 -4 6 8 10 29 10 29 0 36 4 36 20 0 18 -26 40 -49
40 -5 0 -17 -7 -25 -16z m59 -14 c4 -6 -7 -10 -24 -10 -17 0 -31 5 -31 10 0 6
11 10 24 10 14 0 28 -4 31 -10z"/>
<path d="M9241 9203 c-1 -19 30 -93 39 -93 5 0 11 13 15 30 10 43 22 45 35 5
6 -19 15 -35 20 -35 9 0 43 91 36 97 -2 3 -9 -12 -16 -31 -14 -44 -24 -45 -36
-5 -5 17 -13 31 -19 31 -5 0 -14 -14 -19 -31 -12 -40 -20 -39 -39 7 -8 20 -15
31 -16 25z"/>
<path d="M9426 9194 c-9 -8 -16 -24 -16 -34 0 -20 25 -50 41 -50 27 0 49 22
49 50 0 44 -44 64 -74 34z m59 -34 c0 -20 -6 -26 -26 -28 -28 -3 -43 16 -32
44 3 9 15 14 32 12 20 -2 26 -8 26 -28z"/>
<path d="M9542 9155 c1 -45 2 -46 5 -11 3 27 10 40 24 43 27 8 23 21 -6 19
-23 -1 -25 -4 -23 -51z"/>
<path d="M9985 9200 c-3 -6 5 -10 19 -10 14 0 28 -4 31 -10 3 -5 -3 -10 -14
-10 -33 0 -51 -11 -51 -31 0 -19 4 -21 53 -23 25 -2 27 1 27 34 0 20 -5 41
-12 48 -15 15 -45 16 -53 2z m50 -60 c-3 -5 -15 -10 -26 -10 -10 0 -19 5 -19
10 0 6 12 10 26 10 14 0 23 -4 19 -10z"/>
<path d="M10173 9203 c-25 -10 -14 -41 17 -48 40 -9 38 -25 -2 -25 -24 0 -29
-3 -21 -11 17 -17 63 -2 63 20 0 13 -10 21 -30 26 -35 8 -31 25 6 25 14 0 22
4 19 10 -6 10 -31 12 -52 3z"/>
<path d="M17708 9203 c7 -3 16 -2 19 1 4 3 -2 6 -13 5 -11 0 -14 -3 -6 -6z"/>
<path d="M17758 9203 c7 -3 16 -2 19 1 4 3 -2 6 -13 5 -11 0 -14 -3 -6 -6z"/>
<path d="M17918 9203 c7 -3 16 -2 19 1 4 3 -2 6 -13 5 -11 0 -14 -3 -6 -6z"/>
<path d="M16818 9190 c29 -12 24 -35 -7 -34 -15 0 -19 -2 -11 -10 15 -15 45 6
45 30 0 13 -8 20 -25 21 l-25 3 23 -10z"/>
<path d="M858 9173 c6 -2 18 -2 25 0 6 3 1 5 -13 5 -14 0 -19 -2 -12 -5z"/>
<path d="M1103 9173 c9 -2 23 -2 30 0 6 3 -1 5 -18 5 -16 0 -22 -2 -12 -5z"/>
<path d="M1473 9173 c9 -2 25 -2 35 0 9 3 1 5 -18 5 -19 0 -27 -2 -17 -5z"/>
<path d="M17168 9173 c6 -2 18 -2 25 0 6 3 1 5 -13 5 -14 0 -19 -2 -12 -5z"/>
<path d="M17373 9173 c9 -2 25 -2 35 0 9 3 1 5 -18 5 -19 0 -27 -2 -17 -5z"/>
<path d="M17623 9173 c9 -2 25 -2 35 0 9 3 1 5 -18 5 -19 0 -27 -2 -17 -5z"/>
<path d="M17973 9173 c9 -2 25 -2 35 0 9 3 1 5 -18 5 -19 0 -27 -2 -17 -5z"/>
<path d="M18173 9173 c9 -2 25 -2 35 0 9 3 1 5 -18 5 -19 0 -27 -2 -17 -5z"/>
<path d="M16910 9161 c0 -8 -8 -11 -20 -8 -11 3 -18 1 -14 -4 3 -5 11 -9 19
-9 16 0 30 18 21 27 -3 4 -6 1 -6 -6z"/>
<path d="M698 9143 c7 -3 16 -2 19 1 4 3 -2 6 -13 5 -11 0 -14 -3 -6 -6z"/>
<path d="M1998 9143 c7 -3 16 -2 19 1 4 3 -2 6 -13 5 -11 0 -14 -3 -6 -6z"/>
<path d="M2083 9143 c9 -2 23 -2 30 0 6 3 -1 5 -18 5 -16 0 -22 -2 -12 -5z"/>
<path d="M17388 9143 c7 -3 16 -2 19 1 4 3 -2 6 -13 5 -11 0 -14 -3 -6 -6z"/>
<path d="M17638 9143 c7 -3 16 -2 19 1 4 3 -2 6 -13 5 -11 0 -14 -3 -6 -6z"/>
<path d="M17818 9143 c7 -3 16 -2 19 1 4 3 -2 6 -13 5 -11 0 -14 -3 -6 -6z"/>
<path d="M17918 9143 c7 -3 16 -2 19 1 4 3 -2 6 -13 5 -11 0 -14 -3 -6 -6z"/>
<path d="M17988 9143 c7 -3 16 -2 19 1 4 3 -2 6 -13 5 -11 0 -14 -3 -6 -6z"/>
<path d="M18188 9143 c7 -3 16 -2 19 1 4 3 -2 6 -13 5 -11 0 -14 -3 -6 -6z"/>
<path d="M6482 8468 c-1 -23 -7 -38 -14 -38 -10 0 -10 -2 -1 -8 6 -4 13 -23
16 -42 l4 -35 1 38 c1 22 7 37 15 37 9 0 9 2 0 8 -6 4 -13 23 -16 42 l-4 35
-1 -37z"/>
<path d="M614 8481 c7 -10 31 -9 42 2 4 4 -5 7 -20 7 -15 0 -25 -4 -22 -9z"/>
<path d="M1803 8425 c0 -33 2 -45 4 -27 2 18 2 45 0 60 -2 15 -4 0 -4 -33z"/>
<path d="M3173 8425 c0 -33 2 -45 4 -27 2 18 2 45 0 60 -2 15 -4 0 -4 -33z"/>
<path d="M4733 8463 c15 -2 37 -2 50 0 12 2 0 4 -28 4 -27 0 -38 -2 -22 -4z"/>
<path d="M572 8425 c0 -16 2 -24 5 -17 3 7 25 12 58 12 33 0 55 -5 58 -12 3
-7 5 1 5 17 0 17 -2 24 -5 18 -6 -17 -110 -17 -116 0 -3 6 -5 -1 -5 -18z"/>
<path d="M4733 8423 c15 -2 37 -2 50 0 12 2 0 4 -28 4 -27 0 -38 -2 -22 -4z"/>
<path d="M3353 8413 c9 -2 25 -2 35 0 9 3 1 5 -18 5 -19 0 -27 -2 -17 -5z"/>
<path d="M903 8403 c9 -2 23 -2 30 0 6 3 -1 5 -18 5 -16 0 -22 -2 -12 -5z"/>
<path d="M2143 8403 c9 -2 25 -2 35 0 9 3 1 5 -18 5 -19 0 -27 -2 -17 -5z"/>
<path d="M2418 8403 c7 -3 16 -2 19 1 4 3 -2 6 -13 5 -11 0 -14 -3 -6 -6z"/>
<path d="M3838 8403 c7 -3 16 -2 19 1 4 3 -2 6 -13 5 -11 0 -14 -3 -6 -6z"/>
<path d="M4088 8403 c7 -3 16 -2 19 1 4 3 -2 6 -13 5 -11 0 -14 -3 -6 -6z"/>
<path d="M4218 8403 c7 -3 16 -2 19 1 4 3 -2 6 -13 5 -11 0 -14 -3 -6 -6z"/>
<path d="M5173 8403 c9 -2 23 -2 30 0 6 3 -1 5 -18 5 -16 0 -22 -2 -12 -5z"/>
<path d="M5643 8403 c9 -2 23 -2 30 0 6 3 -1 5 -18 5 -16 0 -22 -2 -12 -5z"/>
<path d="M5778 8403 c7 -3 16 -2 19 1 4 3 -2 6 -13 5 -11 0 -14 -3 -6 -6z"/>
<path d="M6778 8403 c6 -2 18 -2 25 0 6 3 1 5 -13 5 -14 0 -19 -2 -12 -5z"/>
<path d="M6973 8403 c9 -2 23 -2 30 0 6 3 -1 5 -18 5 -16 0 -22 -2 -12 -5z"/>
<path d="M7248 8403 c6 -2 18 -2 25 0 6 3 1 5 -13 5 -14 0 -19 -2 -12 -5z"/>
<path d="M7378 8403 c7 -3 16 -2 19 1 4 3 -2 6 -13 5 -11 0 -14 -3 -6 -6z"/>
<path d="M4733 8383 c15 -2 37 -2 50 0 12 2 0 4 -28 4 -27 0 -38 -2 -22 -4z"/>
<path d="M614 8369 c-3 -5 7 -9 22 -9 15 0 24 3 20 7 -11 11 -35 12 -42 2z"/>
<path d="M578 7663 c-7 -16 -12 -64 -12 -108 -1 -66 3 -89 25 -135 42 -88 112
-146 222 -183 14 -5 17 -18 17 -66 0 -59 0 -59 -32 -66 -122 -25 -238 -172
-238 -300 l0 -45 55 0 55 0 0 47 c0 97 68 179 170 203 130 31 260 -77 260
-217 l0 -33 56 0 57 0 -6 53 c-17 144 -100 250 -225 288 l-42 12 0 64 c0 53 3
63 18 63 32 0 119 47 157 85 57 58 89 135 89 220 0 39 -5 87 -13 108 l-13 37
-64 0 -64 0 21 -42 c77 -150 -42 -322 -210 -306 -100 10 -169 71 -190 170 -12
54 -2 111 26 155 l15 23 -61 0 c-58 0 -62 -2 -73 -27z"/>
<path d="M2860 7670 c-16 -16 -20 -33 -20 -80 0 -104 -16 -100 365 -100 381 0
365 -4 365 100 0 104 16 100 -365 100 -312 0 -326 -1 -345 -20z m124 -36 c31
-30 9 -84 -34 -84 -24 0 -50 26 -50 50 0 24 26 50 50 50 10 0 26 -7 34 -16z
m296 -39 c0 -42 -3 -55 -15 -55 -12 0 -15 13 -15 55 0 42 3 55 15 55 12 0 15
-13 15 -55z m39 0 c1 -44 -2 -55 -14 -55 -12 0 -15 11 -14 55 1 35 6 55 14 55
8 0 13 -20 14 -55z m-183 36 c5 -6 29 -11 54 -13 44 -3 45 -4 48 -40 2 -29 0
-38 -12 -38 -11 0 -16 9 -16 30 0 17 -4 30 -10 30 -5 0 -10 -13 -10 -30 0 -23
-4 -30 -20 -30 -11 0 -20 5 -20 12 0 9 -3 9 -12 0 -7 -7 -29 -12 -50 -12 -31
0 -41 5 -50 25 -19 42 3 75 50 75 21 0 42 -4 48 -9z m279 -21 c5 -8 11 -7 20
0 8 6 26 10 42 8 25 -3 28 -7 28 -38 0 -31 -3 -35 -28 -38 -16 -2 -35 2 -43 9
-10 8 -14 8 -14 0 0 -23 -29 -10 -32 14 -2 14 -7 26 -13 26 -5 0 -11 -12 -13
-26 -6 -43 -32 -31 -32 15 0 40 0 40 39 40 22 0 43 -5 46 -10z"/>
<path d="M3077 7613 c-11 -10 -8 -41 4 -49 6 -3 18 1 27 9 13 13 13 19 2 31
-14 17 -23 20 -33 9z"/>
<path d="M1993 7653 c9 -2 23 -2 30 0 6 3 -1 5 -18 5 -16 0 -22 -2 -12 -5z"/>
<path d="M2045 7622 c0 -23 -5 -28 -35 -33 -35 -6 -35 -6 -4 -8 16 0 35 4 42
11 14 14 16 44 4 52 -4 2 -8 -8 -7 -22z"/>
<path d="M2093 7585 c0 -27 2 -38 4 -22 2 15 2 37 0 50 -2 12 -4 0 -4 -28z"/>
<path d="M2132 7580 c1 -34 2 -38 5 -15 6 39 22 58 45 52 10 -3 16 -1 13 4 -3
4 -19 7 -35 6 -29 -2 -30 -4 -28 -47z"/>
<path d="M2270 7626 c0 -2 7 -7 16 -10 8 -3 12 -2 9 4 -6 10 -25 14 -25 6z"/>
<path d="M2441 7565 c1 -33 4 -50 6 -37 3 17 9 21 27 16 15 -3 28 1 37 12 13
16 12 16 -8 4 -18 -11 -24 -12 -37 -1 -9 8 -16 19 -16 26 0 7 7 18 16 26 13
11 19 10 37 -1 20 -12 21 -12 9 3 -8 9 -26 15 -43 14 -29 -2 -29 -3 -28 -62z"/>
<path d="M2551 7565 c1 -33 4 -50 6 -37 3 17 9 21 27 16 15 -3 28 1 37 12 13
16 12 16 -8 4 -18 -11 -24 -12 -37 -1 -9 8 -16 19 -16 26 0 7 7 18 16 26 13
11 19 10 37 -1 20 -12 21 -12 9 3 -8 9 -26 15 -43 14 -29 -2 -29 -3 -28 -62z"/>
<path d="M2719 7613 c-13 -15 -12 -15 8 -3 18 12 24 12 40 -1 16 -13 17 -13 4
4 -17 21 -35 22 -52 0z"/>
<path d="M2247 7613 c-11 -10 -8 -51 3 -58 5 -3 7 0 4 9 -4 11 4 16 33 19 l38
4 -39 1 c-29 2 -37 5 -32 17 6 16 3 19 -7 8z"/>
<path d="M2202 7570 c0 -19 2 -27 5 -17 2 9 2 25 0 35 -3 9 -5 1 -5 -18z"/>
<path d="M2346 7582 c-3 -5 8 -6 25 -4 16 2 29 6 29 8 0 8 -49 4 -54 -4z"/>
<path d="M2728 7583 c12 -2 30 -2 40 0 9 3 -1 5 -23 4 -22 0 -30 -2 -17 -4z"/>
<path d="M2722 7554 c9 -9 21 -15 27 -13 6 2 -2 10 -17 17 -25 11 -25 11 -10
-4z"/>
<path d="M2348 7548 c5 -5 16 -8 23 -6 8 3 3 7 -10 11 -17 4 -21 3 -13 -5z"/>
<path d="M1976 7441 c-4 -5 3 -7 14 -4 23 6 26 13 6 13 -8 0 -17 -4 -20 -9z"/>
<path d="M2141 7414 c0 -11 3 -14 6 -6 3 7 2 16 -1 19 -3 4 -6 -2 -5 -13z"/>
<path d="M2173 7420 c9 -6 17 -17 17 -25 0 -8 -8 -19 -17 -24 -10 -6 -13 -11
-7 -11 6 0 17 7 25 16 14 18 3 45 -22 51 -8 3 -7 0 4 -7z"/>
<path d="M2250 7426 c0 -2 7 -7 16 -10 8 -3 12 -2 9 4 -6 10 -25 14 -25 6z"/>
<path d="M2330 7426 c0 -2 7 -7 16 -10 8 -3 12 -2 9 4 -6 10 -25 14 -25 6z"/>
<path d="M2390 7420 c0 -5 7 -7 15 -4 8 4 15 8 15 10 0 2 -7 4 -15 4 -8 0 -15
-4 -15 -10z"/>
<path d="M1975 7410 c3 -4 14 -10 25 -13 11 -3 18 -2 15 3 -3 4 -14 10 -25 13
-11 3 -18 2 -15 -3z"/>
<path d="M2323 7393 c9 -2 25 -2 35 0 9 3 1 5 -18 5 -19 0 -27 -2 -17 -5z"/>
<path d="M2528 7393 c6 -2 18 -2 25 0 6 3 1 5 -13 5 -14 0 -19 -2 -12 -5z"/>
<path d="M2608 7393 c7 -3 16 -2 19 1 4 3 -2 6 -13 5 -11 0 -14 -3 -6 -6z"/>
<path d="M3183 7393 c9 -2 23 -2 30 0 6 3 -1 5 -18 5 -16 0 -22 -2 -12 -5z"/>
<path d="M2050 7381 c0 -10 19 -25 25 -20 1 2 -3 10 -11 17 -8 7 -14 8 -14 3z"/>
<path d="M2963 7383 c9 -2 25 -2 35 0 9 3 1 5 -18 5 -19 0 -27 -2 -17 -5z"/>
<path d="M1995 7370 c-16 -7 -17 -9 -3 -9 9 -1 20 4 23 9 7 11 7 11 -20 0z"/>
<path d="M1966 7164 c-23 -23 -23 -285 0 -308 14 -14 95 -16 744 -16 649 0
730 2 744 16 23 23 23 285 0 308 -14 14 -95 16 -744 16 -649 0 -730 -2 -744
-16z m454 -112 c0 -15 6 -18 28 -14 34 5 53 -15 45 -46 -4 -16 -13 -22 -34
-22 -16 0 -29 6 -30 13 0 10 -2 10 -6 0 -6 -16 -69 -17 -79 -2 -4 8 -9 8 -17
0 -17 -17 -55 -13 -66 7 -10 16 -10 16 -11 0 0 -26 -21 -22 -47 10 l-22 27 -1
-27 c0 -16 -4 -28 -10 -28 -5 0 -10 20 -10 45 0 50 12 57 41 23 l18 -23 1 23
c0 33 30 28 30 -5 1 -24 2 -25 11 -10 11 19 54 23 65 6 4 -8 9 -8 17 0 6 6 19
11 29 11 10 0 18 7 18 15 0 8 7 15 15 15 8 0 15 -8 15 -18z m140 3 c0 -11 11
-15 38 -15 31 0 41 -5 49 -22 l10 -23 7 23 c4 12 12 22 17 22 11 0 4 -30 -18
-72 -9 -18 -21 -28 -36 -28 -20 1 -21 2 -4 14 13 10 15 19 9 37 l-9 24 -7 -23
c-6 -17 -15 -22 -42 -22 l-34 0 0 50 c0 28 5 50 10 50 6 0 10 -7 10 -15z m566
-10 c9 -8 11 -15 5 -15 -6 0 -11 -12 -11 -26 0 -14 4 -23 10 -19 6 3 10 1 10
-4 0 -6 -9 -11 -19 -11 -14 0 -20 9 -23 34 -6 55 2 67 28 41z m-331 -24 c9
-30 -5 -51 -35 -51 -30 0 -44 21 -35 51 4 13 16 19 35 19 19 0 31 -6 35 -19z
m82 3 c5 -15 7 -15 15 0 12 21 54 20 67 -1 10 -17 10 -17 11 0 0 14 9 17 54
17 47 0 54 -3 60 -22 11 -42 7 -48 -29 -48 -28 0 -35 4 -35 20 0 14 7 20 21
20 11 0 18 4 15 8 -3 5 -15 8 -28 6 -13 -1 -26 -3 -30 -3 -5 -1 -8 -12 -8 -26
0 -28 -19 -35 -21 -7 -1 16 -2 16 -6 0 -6 -23 -61 -25 -70 -2 -5 15 -7 15 -15
0 -5 -9 -18 -16 -28 -16 -11 0 -20 -7 -20 -15 0 -8 -4 -15 -10 -15 -5 0 -10
23 -10 50 0 49 1 50 30 50 19 0 33 -6 37 -16z m338 -3 c9 -30 -5 -51 -35 -51
-30 0 -44 21 -35 51 4 13 16 19 35 19 19 0 31 -6 35 -19z m47 7 c-7 -7 -12
-22 -12 -35 0 -13 -4 -23 -10 -23 -5 0 -10 16 -10 35 0 29 4 35 22 35 17 0 19
-3 10 -12z"/>
<path d="M2284 7016 c-4 -10 -2 -22 4 -28 8 -8 13 -7 18 6 4 10 2 22 -4 28 -8
8 -13 7 -18 -6z"/>
<path d="M2364 7016 c-4 -10 -2 -22 4 -28 8 -8 13 -7 18 6 4 10 2 22 -4 28 -8
8 -13 7 -18 -6z"/>
<path d="M2448 7013 c7 -3 16 -2 19 1 4 3 -2 6 -13 5 -11 0 -14 -3 -6 -6z"/>
<path d="M2560 7005 c0 -10 7 -15 18 -13 21 4 19 22 -2 26 -10 2 -16 -3 -16
-13z"/>
<path d="M2745 7011 c-7 -12 12 -24 25 -16 11 7 4 25 -10 25 -5 0 -11 -4 -15
-9z"/>
<path d="M2834 7016 c-4 -10 -2 -22 4 -28 8 -8 13 -7 18 6 4 10 2 22 -4 28 -8
8 -13 7 -18 -6z"/>
<path d="M2915 7020 c-3 -5 1 -10 10 -10 9 0 13 5 10 10 -3 6 -8 10 -10 10 -2
0 -7 -4 -10 -10z"/>
<path d="M3165 7011 c-7 -12 12 -24 25 -16 11 7 4 25 -10 25 -5 0 -11 -4 -15
-9z"/>
<path d="M2183 6713 c115 -2 299 -2 410 0 111 1 18 2 -208 2 -225 0 -316 -1
-202 -2z"/>
<path d="M3223 6713 c136 -2 358 -2 495 0 136 1 24 2 -248 2 -272 0 -384 -1
-247 -2z"/>
<path d="M1954 6550 c0 -80 2 -112 3 -72 2 39 2 105 0 145 -1 39 -3 7 -3 -73z"/>
<path d="M2814 6550 c0 -80 2 -112 3 -72 2 39 2 105 0 145 -1 39 -3 7 -3 -73z"/>
<path d="M2954 6550 c0 -80 2 -112 3 -72 2 39 2 105 0 145 -1 39 -3 7 -3 -73z"/>
<path d="M3984 6550 c0 -80 2 -112 3 -72 2 39 2 105 0 145 -1 39 -3 7 -3 -73z"/>
<path d="M2178 6593 c12 -2 30 -2 40 0 9 3 -1 5 -23 4 -22 0 -30 -2 -17 -4z"/>
<path d="M3173 6593 c9 -2 25 -2 35 0 9 3 1 5 -18 5 -19 0 -27 -2 -17 -5z"/>
<path d="M2273 6561 c-13 -11 -23 -23 -23 -27 0 -4 5 -3 12 4 9 9 18 7 37 -11
l26 -22 -22 26 c-18 19 -20 28 -11 37 18 18 6 14 -19 -7z"/>
<path d="M2348 6573 c7 -3 16 -2 19 1 4 3 -2 6 -13 5 -11 0 -14 -3 -6 -6z"/>
<path d="M2480 6576 c0 -2 9 -6 20 -9 11 -3 18 -1 14 4 -5 9 -34 13 -34 5z"/>
<path d="M3238 6573 c6 -2 18 -2 25 0 6 3 1 5 -13 5 -14 0 -19 -2 -12 -5z"/>
<path d="M3320 6576 c0 -2 7 -7 16 -10 8 -3 12 -2 9 4 -6 10 -25 14 -25 6z"/>
<path d="M3387 6573 c-3 -5 5 -8 18 -8 13 0 21 3 18 8 -2 4 -10 7 -18 7 -8 0
-16 -3 -18 -7z"/>
<path d="M3518 6573 c7 -3 16 -2 19 1 4 3 -2 6 -13 5 -11 0 -14 -3 -6 -6z"/>
<path d="M3650 6576 c0 -2 9 -6 20 -9 11 -3 18 -1 14 4 -5 9 -34 13 -34 5z"/>
<path d="M2189 6553 c-13 -16 -12 -17 4 -4 9 7 17 15 17 17 0 8 -8 3 -21 -13z"/>
<path d="M2335 6550 c3 -6 13 -10 21 -10 20 0 18 -17 -3 -24 -14 -4 -14 -4 2
-3 27 3 25 28 -3 38 -15 6 -21 5 -17 -1z"/>
<path d="M3160 6551 c0 -4 11 -6 25 -3 14 2 25 6 25 8 0 2 -11 4 -25 4 -14 0
-25 -4 -25 -9z"/>
<path d="M3505 6550 c3 -6 13 -10 21 -10 20 0 18 -17 -3 -24 -14 -4 -14 -4 2
-3 27 3 25 28 -3 38 -15 6 -21 5 -17 -1z"/>
<path d="M2475 6540 c-8 -13 3 -30 18 -29 9 0 9 2 0 6 -20 8 -15 21 10 26 22
4 22 4 0 6 -12 0 -25 -3 -28 -9z"/>
<path d="M3383 6543 c9 -2 25 -2 35 0 9 3 1 5 -18 5 -19 0 -27 -2 -17 -5z"/>
<path d="M3645 6540 c-8 -13 3 -30 18 -29 9 0 9 2 0 6 -20 8 -15 21 10 26 22
4 22 4 0 6 -12 0 -25 -3 -28 -9z"/>
<path d="M3388 6518 c5 -5 16 -8 23 -6 8 3 3 7 -10 11 -17 4 -21 3 -13 -5z"/>
<path d="M2178 6513 c12 -2 30 -2 40 0 9 3 -1 5 -23 4 -22 0 -30 -2 -17 -4z"/>
<path d="M3173 6513 c9 -2 25 -2 35 0 9 3 1 5 -18 5 -19 0 -27 -2 -17 -5z"/>
<path d="M2183 6383 c115 -2 299 -2 410 0 111 1 18 2 -208 2 -225 0 -316 -1
-202 -2z"/>
<path d="M3223 6383 c136 -2 358 -2 495 0 136 1 24 2 -248 2 -272 0 -384 -1
-247 -2z"/>
<path d="M1058 6023 c13 -3 19 -9 16 -15 -4 -7 -2 -8 4 -4 21 13 13 26 -15 25
-24 -2 -25 -2 -5 -6z"/>
<path d="M4011 6027 c2 -1 13 -9 24 -17 19 -14 19 -14 6 3 -7 9 -18 17 -24 17
-6 0 -8 -1 -6 -3z"/>
<path d="M4138 6023 c7 -3 16 -2 19 1 4 3 -2 6 -13 5 -11 0 -14 -3 -6 -6z"/>
<path d="M4200 6015 c-19 -22 -8 -25 13 -3 9 10 13 18 8 18 -5 0 -14 -7 -21
-15z"/>
<path d="M6927 6022 c6 -4 13 -28 16 -52 l4 -45 1 53 c2 44 -1 52 -15 52 -12
0 -14 -3 -6 -8z"/>
<path d="M6986 6021 c-4 -5 3 -7 14 -4 14 4 22 -1 29 -18 6 -14 10 -18 10 -8
2 29 -40 52 -53 30z"/>
<path d="M7193 6023 c9 -2 23 -2 30 0 6 3 -1 5 -18 5 -16 0 -22 -2 -12 -5z"/>
<path d="M4252 5980 c0 -14 2 -19 5 -12 2 6 2 18 0 25 -3 6 -5 1 -5 -13z"/>
<path d="M7092 5976 c4 -33 31 -57 48 -40 8 8 4 10 -12 10 -17 -1 -23 5 -24
22 -1 12 -5 26 -9 30 -4 4 -5 -6 -3 -22z"/>
<path d="M4100 5980 c0 -5 5 -10 11 -10 5 0 7 5 4 10 -3 6 -8 10 -11 10 -2 0
-4 -4 -4 -10z"/>
<path d="M6988 5978 c5 -5 16 -8 23 -6 8 3 3 7 -10 11 -17 4 -21 3 -13 -5z"/>
<path d="M7120 5986 c0 -2 7 -7 16 -10 8 -3 12 -2 9 4 -6 10 -25 14 -25 6z"/>
<path d="M7180 5986 c0 -2 11 -6 25 -8 13 -3 22 -1 19 3 -5 9 -44 13 -44 5z"/>
<path d="M721 5963 c-1 -7 -7 -13 -14 -13 -7 0 -21 -10 -31 -21 -15 -18 -16
-23 -5 -30 12 -7 11 -11 -1 -19 -10 -6 -11 -10 -2 -10 6 0 12 -7 12 -15 0 -9
8 -19 18 -22 9 -4 20 -11 24 -17 5 -7 8 -7 8 2 0 6 7 12 15 12 8 0 15 -6 15
-12 0 -9 3 -9 8 -2 4 6 15 13 25 17 9 3 17 13 17 22 0 8 6 15 13 15 8 0 7 4
-3 10 -12 8 -13 12 -1 19 11 7 10 12 -5 30 -10 11 -24 21 -30 21 -7 0 -15 6
-17 13 -4 10 -6 10 -6 0 -1 -7 -7 -13 -15 -13 -8 0 -17 6 -19 13 -4 10 -6 10
-6 0z m73 -73 l1 -45 -50 0 -50 0 0 40 c0 22 1 44 3 48 2 4 25 7 50 5 l46 -3
0 -45z"/>
<path d="M720 5890 c0 -25 4 -30 25 -30 21 0 25 5 25 30 0 25 -4 30 -25 30
-21 0 -25 -5 -25 -30z m40 0 c0 -5 -7 -10 -15 -10 -8 0 -15 5 -15 10 0 6 7 10
15 10 8 0 15 -4 15 -10z"/>
<path d="M4190 5961 c0 -10 29 -36 34 -30 1 2 -6 12 -16 22 -10 9 -18 13 -18
8z"/>
<path d="M7026 5953 c-6 -14 -5 -15 5 -6 7 7 10 15 7 18 -3 3 -9 -2 -12 -12z"/>
<path d="M3648 5944 c-16 -8 -28 -17 -28 -19 0 -2 14 -12 31 -21 33 -17 62
-14 93 9 19 14 19 15 -12 31 -38 19 -49 20 -84 0z m72 -8 l25 -14 -28 -13
c-21 -10 -33 -10 -54 0 l-28 13 25 14 c14 7 27 13 30 13 3 0 16 -6 30 -13z"/>
<path d="M4026 5945 c-11 -8 -15 -15 -9 -15 6 0 16 7 23 15 16 19 11 19 -14 0z"/>
<path d="M1065 5940 c-16 -7 -17 -9 -3 -9 9 -1 20 4 23 9 7 11 7 11 -20 0z"/>
<path d="M6576 5928 c-9 -12 -16 -40 -16 -61 l0 -38 68 3 67 3 3 33 c5 51 -20
82 -68 82 -29 0 -43 -6 -54 -22z m94 8 c0 -2 3 -11 6 -20 5 -13 -2 -16 -45
-16 -28 0 -51 2 -51 4 0 24 17 36 51 36 21 0 39 -2 39 -4z m20 -76 c0 -18 -7
-20 -60 -20 -53 0 -60 2 -60 20 0 18 7 20 60 20 53 0 60 -2 60 -20z"/>
<path d="M7205 5940 c-16 -7 -17 -9 -3 -9 9 -1 20 4 23 9 7 11 7 11 -20 0z"/>
<path d="M3620 5892 c0 -5 16 -16 35 -25 33 -16 37 -16 70 0 19 9 35 20 35 25
0 4 -16 0 -35 -9 -33 -16 -37 -16 -70 0 -19 9 -35 13 -35 9z"/>
<path d="M3635 5844 c32 -24 61 -27 95 -9 17 9 30 19 27 21 -3 3 -19 -2 -36
-11 -28 -14 -34 -14 -61 0 -37 19 -51 19 -25 -1z"/>
<path d="M1050 5485 c-19 -22 -8 -25 13 -3 9 10 13 18 8 18 -5 0 -14 -7 -21
-15z"/>
<path d="M1170 5485 c-19 -22 -8 -25 13 -3 9 10 13 18 8 18 -5 0 -14 -7 -21
-15z"/>
<path d="M1260 5485 c-19 -22 -8 -25 13 -3 9 10 13 18 8 18 -5 0 -14 -7 -21
-15z"/>
<path d="M1357 5493 c-3 -5 5 -8 18 -8 13 0 21 3 18 8 -2 4 -10 7 -18 7 -8 0
-16 -3 -18 -7z"/>
<path d="M4011 5497 c2 -1 13 -9 24 -17 19 -14 19 -14 6 3 -7 9 -18 17 -24 17
-6 0 -8 -1 -6 -3z"/>
<path d="M4173 5493 c9 -2 23 -2 30 0 6 3 -1 5 -18 5 -16 0 -22 -2 -12 -5z"/>
<path d="M4261 5497 c2 -1 13 -9 24 -17 19 -14 19 -14 6 3 -7 9 -18 17 -24 17
-6 0 -8 -1 -6 -3z"/>
<path d="M6940 5485 c-19 -22 -8 -25 13 -3 9 10 13 18 8 18 -5 0 -14 -7 -21
-15z"/>
<path d="M7060 5485 c-19 -22 -8 -25 13 -3 9 10 13 18 8 18 -5 0 -14 -7 -21
-15z"/>
<path d="M7150 5485 c-19 -22 -8 -25 13 -3 9 10 13 18 8 18 -5 0 -14 -7 -21
-15z"/>
<path d="M7247 5493 c-3 -5 5 -8 18 -8 13 0 21 3 18 8 -2 4 -10 7 -18 7 -8 0
-16 -3 -18 -7z"/>
<path d="M1102 5450 c0 -14 2 -19 5 -12 2 6 2 18 0 25 -3 6 -5 1 -5 -13z"/>
<path d="M1222 5450 c0 -14 2 -19 5 -12 2 6 2 18 0 25 -3 6 -5 1 -5 -13z"/>
<path d="M1312 5450 c0 -14 2 -19 5 -12 2 6 2 18 0 25 -3 6 -5 1 -5 -13z"/>
<path d="M1342 5450 c0 -14 2 -19 5 -12 2 6 2 18 0 25 -3 6 -5 1 -5 -13z"/>
<path d="M1402 5450 c0 -14 2 -19 5 -12 2 6 2 18 0 25 -3 6 -5 1 -5 -13z"/>
<path d="M6992 5450 c0 -14 2 -19 5 -12 2 6 2 18 0 25 -3 6 -5 1 -5 -13z"/>
<path d="M7112 5450 c0 -14 2 -19 5 -12 2 6 2 18 0 25 -3 6 -5 1 -5 -13z"/>
<path d="M7202 5450 c0 -14 2 -19 5 -12 2 6 2 18 0 25 -3 6 -5 1 -5 -13z"/>
<path d="M7232 5450 c0 -14 2 -19 5 -12 2 6 2 18 0 25 -3 6 -5 1 -5 -13z"/>
<path d="M7292 5450 c0 -14 2 -19 5 -12 2 6 2 18 0 25 -3 6 -5 1 -5 -13z"/>
<path d="M4168 5453 c7 -3 16 -2 19 1 4 3 -2 6 -13 5 -11 0 -14 -3 -6 -6z"/>
<path d="M741 5439 c0 -9 -10 -19 -21 -22 -12 -3 -20 -14 -20 -27 0 -13 8 -24
20 -27 28 -7 26 -41 -2 -46 -23 -4 -23 -4 -1 -6 12 0 24 -9 26 -18 4 -15 5
-16 6 -2 0 9 10 19 21 22 12 3 20 14 20 27 0 13 -8 24 -20 27 -25 7 -26 40 -2
46 15 4 15 5 0 6 -9 0 -19 9 -21 19 -4 14 -5 15 -6 1z m-1 -49 c0 -11 -7 -20
-15 -20 -8 0 -15 9 -15 20 0 11 7 20 15 20 8 0 15 -9 15 -20z m40 -50 c0 -11
-7 -20 -15 -20 -8 0 -15 9 -15 20 0 11 7 20 15 20 8 0 15 -9 15 -20z"/>
<path d="M1040 5431 c0 -10 29 -36 34 -30 1 2 -6 12 -16 22 -10 9 -18 13 -18
8z"/>
<path d="M1160 5431 c0 -10 29 -36 34 -30 1 2 -6 12 -16 22 -10 9 -18 13 -18
8z"/>
<path d="M1250 5431 c0 -10 29 -36 34 -30 1 2 -6 12 -16 22 -10 9 -18 13 -18
8z"/>
<path d="M6930 5431 c0 -10 29 -36 34 -30 1 2 -6 12 -16 22 -10 9 -18 13 -18
8z"/>
<path d="M7050 5431 c0 -10 29 -36 34 -30 1 2 -6 12 -16 22 -10 9 -18 13 -18
8z"/>
<path d="M7140 5431 c0 -10 29 -36 34 -30 1 2 -6 12 -16 22 -10 9 -18 13 -18
8z"/>
<path d="M4026 5415 c-11 -8 -15 -15 -9 -15 6 0 16 7 23 15 16 19 11 19 -14 0z"/>
<path d="M4276 5415 c-11 -8 -15 -15 -9 -15 6 0 16 7 23 15 16 19 11 19 -14 0z"/>
<path d="M1357 5408 c2 -5 10 -8 18 -8 8 0 16 3 18 8 3 4 -5 7 -18 7 -13 0
-21 -3 -18 -7z"/>
<path d="M3656 5412 c-2 -4 13 -6 35 -4 21 2 39 6 39 8 0 7 -69 4 -74 -4z"/>
<path d="M6596 5412 c-2 -4 13 -6 35 -4 21 2 39 6 39 8 0 7 -69 4 -74 -4z"/>
<path d="M7247 5408 c2 -5 10 -8 18 -8 8 0 16 3 18 8 3 4 -5 7 -18 7 -13 0
-21 -3 -18 -7z"/>
<path d="M3656 5369 c2 -4 19 -9 38 -11 19 -2 33 -1 30 3 -2 4 -19 9 -38 11
-19 2 -33 1 -30 -3z"/>
<path d="M6596 5369 c2 -4 19 -9 38 -11 19 -2 33 -1 30 3 -2 4 -19 9 -38 11
-19 2 -33 1 -30 -3z"/>
<path d="M3685 5320 l-40 -7 37 -2 c20 0 40 4 43 9 3 6 5 9 3 9 -2 -1 -21 -5
-43 -9z"/>
<path d="M6625 5320 l-40 -7 37 -2 c20 0 40 4 43 9 3 6 5 9 3 9 -2 -1 -21 -5
-43 -9z"/>
<path d="M499 4511 c-18 -14 -24 -29 -24 -61 0 -32 6 -47 24 -61 30 -24 46
-24 71 1 40 40 15 140 -34 140 -8 0 -24 -9 -37 -19z m59 -13 c17 -17 15 -83
-3 -98 -20 -17 -52 -3 -59 26 -15 58 28 106 62 72z"/>
<path d="M690 4510 c-27 -27 -27 -89 0 -118 25 -27 41 -28 71 -3 33 27 33 95
0 122 -30 24 -46 24 -71 -1z m56 -8 c31 -20 26 -97 -7 -107 -29 -10 -49 13
-49 54 0 50 25 74 56 53z"/>
<path d="M840 4510 c-40 -40 -15 -140 35 -140 29 0 55 38 55 80 0 42 -26 80
-55 80 -8 0 -24 -9 -35 -20z m59 -14 c7 -8 11 -31 9 -52 -6 -73 -68 -68 -68 5
0 54 32 79 59 47z"/>
<path d="M989 4511 c-33 -27 -33 -95 0 -122 30 -24 46 -24 71 1 40 40 15 140
-34 140 -8 0 -24 -9 -37 -19z m59 -13 c17 -17 15 -83 -3 -98 -20 -17 -52 -3
-59 26 -15 58 28 106 62 72z"/>
<path d="M1180 4480 c0 -27 5 -61 12 -75 22 -48 89 -41 108 11 13 33 13 114 0
114 -5 0 -10 -24 -10 -54 0 -57 -16 -86 -49 -86 -30 0 -41 22 -41 82 0 32 -4
58 -10 58 -5 0 -10 -22 -10 -50z"/>
<path d="M1359 4509 c-27 -27 -21 -40 29 -64 57 -27 53 -51 -8 -48 -41 2 -43
1 -26 -13 41 -30 101 -7 94 37 -2 16 -12 27 -33 34 -50 17 -58 24 -44 42 9 10
23 13 41 9 30 -6 39 8 12 18 -27 10 -43 7 -65 -15z"/>
<path d="M1490 4450 l0 -83 52 5 c59 6 88 32 88 78 0 46 -29 72 -88 78 l-52 5
0 -83z m98 44 c49 -34 15 -104 -50 -104 -28 0 -28 1 -28 60 0 59 0 60 28 60
15 0 38 -7 50 -16z"/>
<path d="M5070 4510 c-27 -27 -27 -89 0 -118 25 -27 41 -28 71 -3 18 14 24 29
24 61 0 32 -6 47 -24 61 -30 24 -46 24 -71 -1z m56 -8 c31 -20 26 -97 -7 -107
-29 -10 -49 13 -49 54 0 50 25 74 56 53z"/>
<path d="M5269 4511 c-18 -14 -24 -29 -24 -61 0 -32 6 -47 24 -61 30 -24 46
-24 71 1 40 40 15 140 -34 140 -8 0 -24 -9 -37 -19z m59 -13 c17 -17 15 -83
-3 -98 -20 -17 -52 -3 -59 26 -15 58 28 106 62 72z"/>
<path d="M5415 4505 c-16 -15 -25 -36 -25 -55 0 -33 38 -80 64 -80 22 0 56 49
56 80 0 31 -34 80 -56 80 -8 0 -26 -11 -39 -25z m63 -7 c7 -7 12 -28 12 -48 0
-56 -47 -84 -70 -41 -31 59 16 131 58 89z"/>
<path d="M5560 4510 c-27 -27 -27 -89 0 -118 25 -27 41 -28 71 -3 18 14 24 29
24 61 0 32 -6 47 -24 61 -30 24 -46 24 -71 -1z m56 -8 c31 -20 26 -97 -7 -107
-29 -10 -49 13 -49 54 0 50 25 74 56 53z"/>
<path d="M5750 4475 c0 -46 4 -60 25 -80 13 -14 31 -25 40 -25 9 0 27 11 40
25 21 20 25 34 25 80 0 30 -4 55 -10 55 -5 0 -10 -23 -10 -51 0 -63 -13 -89
-45 -89 -32 0 -45 26 -45 89 0 28 -4 51 -10 51 -5 0 -10 -25 -10 -55z"/>
<path d="M5935 4514 c-25 -26 -15 -57 23 -70 68 -22 64 -60 -5 -50 -42 6 -43
-10 -3 -19 37 -8 83 17 78 43 -2 9 -22 26 -46 37 -54 25 -53 51 1 49 38 -1 49
9 21 20 -27 10 -52 7 -69 -10z"/>
<path d="M6060 4450 l0 -80 44 0 c61 0 96 29 96 80 0 51 -35 80 -96 80 l-44 0
0 -80z m101 50 c14 -8 19 -21 19 -50 0 -44 -18 -60 -69 -60 l-31 0 0 60 0 60
31 0 c17 0 39 -5 50 -10z"/>
<path d="M9649 4511 c-18 -14 -24 -29 -24 -61 0 -32 6 -47 24 -61 30 -24 46
-24 71 1 40 40 15 140 -34 140 -8 0 -24 -9 -37 -19z m59 -13 c17 -17 15 -83
-3 -98 -20 -17 -52 -3 -59 26 -15 58 28 106 62 72z"/>
<path d="M9840 4510 c-27 -27 -27 -89 0 -118 25 -27 41 -28 71 -3 18 14 24 29
24 61 0 32 -6 47 -24 61 -30 24 -46 24 -71 -1z m56 -8 c31 -20 26 -97 -7 -107
-29 -10 -49 13 -49 54 0 50 25 74 56 53z"/>
<path d="M9990 4510 c-40 -40 -15 -140 35 -140 29 0 55 38 55 80 0 42 -26 80
-55 80 -8 0 -24 -9 -35 -20z m59 -14 c7 -8 11 -31 9 -52 -6 -73 -68 -68 -68 5
0 54 32 79 59 47z"/>
<path d="M10135 4505 c-16 -15 -25 -36 -25 -55 0 -33 38 -80 64 -80 22 0 56
49 56 80 0 31 -34 80 -56 80 -8 0 -26 -11 -39 -25z m63 -7 c7 -7 12 -28 12
-48 0 -56 -47 -84 -70 -41 -31 59 16 131 58 89z"/>
<path d="M10330 4470 c0 -65 21 -100 60 -100 39 0 60 35 60 100 0 79 -18 78
-22 -1 -2 -46 -8 -65 -20 -73 -34 -21 -53 4 -56 73 -4 79 -22 80 -22 1z"/>
<path d="M10509 4509 c-27 -27 -21 -40 29 -64 57 -27 53 -51 -8 -48 -41 2 -43
1 -26 -13 41 -30 101 -7 94 37 -2 16 -12 27 -33 34 -50 17 -58 24 -44 42 9 10
23 13 41 9 30 -6 39 8 12 18 -27 10 -43 7 -65 -15z"/>
<path d="M10640 4450 l0 -83 52 5 c59 6 88 32 88 78 0 46 -29 72 -88 78 l-52
5 0 -83z m98 44 c49 -34 15 -104 -50 -104 -28 0 -28 1 -28 60 0 59 0 60 28 60
15 0 38 -7 50 -16z"/>
<path d="M14220 4510 c-27 -27 -27 -89 0 -118 25 -27 41 -28 71 -3 18 14 24
29 24 61 0 32 -6 47 -24 61 -30 24 -46 24 -71 -1z m56 -8 c31 -20 26 -97 -7
-107 -29 -10 -49 13 -49 54 0 50 25 74 56 53z"/>
<path d="M14419 4511 c-18 -14 -24 -29 -24 -61 0 -32 6 -47 24 -61 30 -24 46
-24 71 1 40 40 15 140 -34 140 -8 0 -24 -9 -37 -19z m59 -13 c17 -17 15 -83
-3 -98 -20 -17 -52 -3 -59 26 -15 58 28 106 62 72z"/>
<path d="M14565 4505 c-16 -15 -25 -36 -25 -55 0 -33 38 -80 64 -80 22 0 56
49 56 80 0 31 -34 80 -56 80 -8 0 -26 -11 -39 -25z m63 -7 c7 -7 12 -28 12
-48 0 -56 -47 -84 -70 -41 -31 59 16 131 58 89z"/>
<path d="M14710 4510 c-40 -40 -15 -140 35 -140 29 0 55 38 55 80 0 42 -26 80
-55 80 -8 0 -24 -9 -35 -20z m59 -14 c7 -8 11 -31 9 -52 -6 -73 -68 -68 -68 5
0 54 32 79 59 47z"/>
<path d="M14900 4475 c0 -46 4 -60 25 -80 13 -14 31 -25 40 -25 9 0 27 11 40
25 21 20 25 34 25 80 0 30 -4 55 -10 55 -5 0 -10 -23 -10 -51 0 -63 -13 -89
-45 -89 -32 0 -45 26 -45 89 0 28 -4 51 -10 51 -5 0 -10 -25 -10 -55z"/>
<path d="M15085 4514 c-25 -26 -15 -57 23 -70 68 -22 64 -60 -5 -50 -42 6 -43
-10 -3 -19 37 -8 83 17 78 43 -2 9 -22 26 -46 37 -54 25 -53 51 1 49 38 -1 49
9 21 20 -27 10 -52 7 -69 -10z"/>
<path d="M15210 4450 l0 -80 44 0 c61 0 96 29 96 80 0 51 -35 80 -96 80 l-44
0 0 -80z m101 50 c14 -8 19 -21 19 -50 0 -44 -18 -60 -69 -60 l-31 0 0 60 0
60 31 0 c17 0 39 -5 50 -10z"/>
<path d="M7872 4388 c-1 -34 -6 -48 -16 -48 -22 0 -29 19 -14 37 11 14 11 15
-2 11 -23 -7 -18 -42 7 -53 17 -7 23 -20 26 -55 l3 -45 2 49 c2 43 4 48 22 43
11 -3 18 -1 14 4 -3 5 -11 9 -19 9 -9 0 -15 15 -18 48 l-3 47 -2 -47z"/>
<path d="M17022 4388 c-1 -34 -6 -48 -16 -48 -22 0 -29 19 -14 37 11 14 11 15
-2 11 -23 -7 -18 -42 7 -53 17 -7 23 -20 26 -55 l3 -45 2 49 c2 43 4 48 22 43
11 -3 18 -1 14 4 -3 5 -11 9 -19 9 -9 0 -15 15 -18 48 l-3 47 -2 -47z"/>
<path d="M624 4399 c-3 -6 -1 -16 5 -22 8 -8 11 -5 11 11 0 24 -5 28 -16 11z"/>
<path d="M5195 4400 c-4 -6 -3 -16 3 -22 6 -6 12 -6 17 2 4 6 3 16 -3 22 -6 6
-12 6 -17 -2z"/>
<path d="M9774 4399 c-3 -6 -1 -16 5 -22 8 -8 11 -5 11 11 0 24 -5 28 -16 11z"/>
<path d="M14345 4400 c-4 -6 -3 -16 3 -22 6 -6 12 -6 17 2 4 6 3 16 -3 22 -6
6 -12 6 -17 -2z"/>
<path d="M3290 4390 c0 -5 5 -10 10 -10 6 0 10 5 10 10 0 6 -4 10 -10 10 -5 0
-10 -4 -10 -10z"/>
<path d="M12440 4390 c0 -5 5 -10 10 -10 6 0 10 5 10 10 0 6 -4 10 -10 10 -5
0 -10 -4 -10 -10z"/>
<path d="M3254 4375 c-9 -23 13 -43 49 -47 26 -2 32 -7 31 -26 0 -16 2 -20 10
-12 17 17 -7 45 -43 48 -35 4 -52 29 -30 43 10 6 11 9 1 9 -7 0 -15 -7 -18
-15z"/>
<path d="M12404 4375 c-9 -23 13 -43 49 -47 26 -2 32 -7 31 -26 0 -16 2 -20
10 -12 17 17 -7 45 -43 48 -35 4 -52 29 -30 43 10 6 11 9 1 9 -7 0 -15 -7 -18
-15z"/>
<path d="M7910 4295 c-8 -9 -8 -15 -2 -15 12 0 26 19 19 26 -2 2 -10 -2 -17
-11z"/>
<path d="M17060 4295 c-8 -9 -8 -15 -2 -15 12 0 26 19 19 26 -2 2 -10 -2 -17
-11z"/>
<path d="M3290 4280 c0 -5 5 -10 10 -10 6 0 10 5 10 10 0 6 -4 10 -10 10 -5 0
-10 -4 -10 -10z"/>
<path d="M12440 4280 c0 -5 5 -10 10 -10 6 0 10 5 10 10 0 6 -4 10 -10 10 -5
0 -10 -4 -10 -10z"/>
<path d="M893 4183 c9 -2 25 -2 35 0 9 3 1 5 -18 5 -19 0 -27 -2 -17 -5z"/>
<path d="M5473 4183 c9 -2 23 -2 30 0 6 3 -1 5 -18 5 -16 0 -22 -2 -12 -5z"/>
<path d="M10043 4183 c9 -2 25 -2 35 0 9 3 1 5 -18 5 -19 0 -27 -2 -17 -5z"/>
<path d="M14623 4183 c9 -2 23 -2 30 0 6 3 -1 5 -18 5 -16 0 -22 -2 -12 -5z"/>
<path d="M1123 4173 c9 -2 25 -2 35 0 9 3 1 5 -18 5 -19 0 -27 -2 -17 -5z"/>
<path d="M612 3560 c0 -51 2 -68 8 -54 13 34 27 36 48 9 28 -35 37 -31 11 5
-22 29 -22 30 -3 52 13 16 9 14 -12 -4 -16 -16 -33 -28 -36 -28 -4 0 -9 21
-11 48 -2 32 -4 24 -5 -28z"/>
<path d="M298 3613 c20 -4 22 -11 24 -66 l1 -62 6 60 c5 52 9 60 31 66 17 5 7
7 -30 7 -30 -1 -45 -3 -32 -5z"/>
<path d="M817 3608 c-3 -7 -12 -29 -20 -48 l-15 -35 43 3 c37 3 44 1 50 -18 4
-12 9 -19 11 -17 3 2 0 15 -6 29 -9 20 -17 23 -46 20 -38 -5 -39 -3 -22 33 12
26 28 34 28 13 0 -6 2 -9 5 -6 7 7 -5 38 -15 38 -4 0 -10 -6 -13 -12z"/>
<path d="M1030 3600 c-7 -59 9 -110 34 -110 6 0 3 5 -6 11 -11 6 -18 22 -18
39 0 17 7 33 18 39 15 9 15 10 0 11 -9 0 -19 6 -21 13 -4 8 -6 7 -7 -3z"/>
<path d="M1323 3595 c-6 -7 -8 -16 -3 -21 5 -5 10 -25 12 -44 2 -26 8 -36 23
-38 18 -2 18 -2 3 8 -12 7 -18 23 -18 45 0 26 4 35 18 36 13 0 14 2 2 6 -8 3
-17 9 -20 13 -3 4 -10 2 -17 -5z"/>
<path d="M410 3580 c-11 -7 -8 -9 14 -7 16 1 31 -4 33 -10 3 -8 -5 -13 -20
-13 -13 0 -30 -7 -37 -15 -18 -22 4 -45 41 -42 26 2 29 5 29 38 0 51 -25 71
-60 49z m50 -54 c0 -17 -24 -28 -45 -20 -29 12 -12 31 28 33 9 1 17 -5 17 -13z"/>
<path d="M523 3583 c-26 -10 -14 -41 18 -48 40 -9 31 -30 -12 -29 -32 2 -32 1
-11 -9 16 -7 29 -8 40 -1 28 18 25 34 -8 45 -34 12 -36 34 -2 33 12 0 19 3 16
8 -6 9 -22 9 -41 1z"/>
<path d="M927 3572 c-22 -25 -21 -45 3 -67 17 -15 24 -16 42 -6 14 7 15 9 5 6
-26 -7 -57 12 -57 35 0 23 32 42 57 34 15 -5 15 -4 3 5 -21 15 -35 14 -53 -7z"/>
<path d="M1113 3540 c0 -30 2 -43 4 -27 2 15 2 39 0 55 -2 15 -4 2 -4 -28z"/>
<path d="M1151 3585 c0 -5 6 -21 14 -35 8 -14 14 -20 14 -15 0 6 -6 21 -14 35
-8 14 -14 21 -14 15z"/>
<path d="M1273 3540 c0 -30 2 -43 4 -27 2 15 2 39 0 55 -2 15 -4 2 -4 -28z"/>
<path d="M1456 3555 c-9 -26 -7 -32 5 -12 6 10 9 21 6 23 -2 3 -7 -2 -11 -11z"/>
<path d="M1400 3557 c0 -4 7 -22 16 -38 12 -24 13 -33 3 -45 -7 -8 -19 -12
-28 -9 -12 4 -13 3 -5 -5 16 -16 41 -2 53 31 6 16 6 27 1 24 -5 -3 -16 7 -24
22 -8 15 -15 24 -16 20z"/>
<path d="M1206 3524 c-3 -8 -10 -12 -16 -9 -6 4 -7 -1 -3 -11 6 -16 7 -15 20
2 13 17 17 34 9 34 -2 0 -7 -7 -10 -16z"/>
<path d="M925 2920 c-4 -6 30 -10 87 -10 445 -2 1093 -147 1673 -375 332 -130
484 -197 1400 -612 902 -410 1478 -597 2080 -678 251 -34 497 -36 3475 -32
3162 4 2981 1 3295 52 541 87 1111 280 1925 650 1239 564 1619 717 2100 844
349 91 738 150 998 151 46 0 82 4 82 10 0 17 -361 -9 -570 -41 -430 -67 -884
-202 -1428 -425 -114 -47 -245 -102 -292 -124 -47 -21 -283 -128 -525 -238
-589 -268 -739 -333 -1026 -447 -584 -233 -1048 -354 -1564 -407 -192 -19
-6119 -19 -6310 0 -732 75 -1294 260 -2570 847 -1112 511 -1638 696 -2260 794
-219 34 -559 58 -570 41z"/>
<path d="M540 2848 c0 -3 6 -9 13 -11 6 -3 2 -6 -10 -6 -41 -2 -24 -21 17 -21
40 0 55 15 23 23 -17 4 -17 5 0 6 30 2 18 18 -13 17 -16 -1 -30 -4 -30 -8z"/>
<path d="M566 2774 c-3 -8 -10 -12 -16 -9 -6 3 -7 -1 -4 -9 8 -20 24 -21 24
-1 0 8 4 15 10 15 5 0 7 -8 4 -17 -5 -14 -4 -15 4 -4 11 15 5 41 -8 41 -4 0
-11 -7 -14 -16z"/>
<path d="M547 2723 c-14 -14 -6 -19 23 -15 17 2 30 8 30 13 0 10 -43 12 -53 2z"/>
<path d="M580 2685 c10 -13 9 -15 -9 -15 -12 0 -19 5 -16 10 3 6 2 10 -3 10
-12 0 -24 -29 -17 -40 3 -5 17 -5 33 -1 31 8 45 51 16 51 -13 0 -14 -3 -4 -15z"/>
<path d="M547 2593 c-14 -14 -6 -19 23 -15 17 2 30 8 30 13 0 10 -43 12 -53 2z"/>
<path d="M575 2560 c4 -6 11 -8 16 -5 14 9 11 15 -7 15 -8 0 -12 -5 -9 -10z"/>
<path d="M540 2500 c0 -5 16 -10 35 -10 19 0 35 -4 35 -9 0 -5 -15 -8 -32 -7
-29 1 -33 -2 -34 -25 -1 -22 2 -25 28 -21 20 3 28 9 24 19 -3 8 -2 12 3 9 12
-8 22 20 15 39 -7 17 -74 21 -74 5z"/>
<path d="M540 2400 c0 -5 14 -10 30 -10 17 0 30 5 30 10 0 6 -13 10 -30 10
-16 0 -30 -4 -30 -10z"/>
<path d="M537 2354 c-8 -44 2 -64 34 -64 37 0 38 20 2 21 -28 1 -28 1 -4 8 34
9 39 30 6 24 -15 -3 -25 -1 -25 6 0 6 11 11 25 11 14 0 25 5 25 10 0 6 -13 10
-29 10 -23 0 -30 -5 -34 -26z"/>
<path d="M568 2272 c-16 -2 -28 -8 -28 -13 0 -13 47 -11 55 2 9 14 5 15 -27
11z"/>
<path d="M547 2228 c-3 -9 5 -13 23 -13 18 0 26 4 23 13 -3 6 -13 12 -23 12
-10 0 -20 -6 -23 -12z"/>
<path d="M540 2180 c0 -11 5 -18 13 -16 6 3 24 7 40 10 41 9 33 26 -13 26 -33
0 -40 -3 -40 -20z"/>
<path d="M547 2143 c-14 -14 -6 -19 23 -15 17 2 30 8 30 13 0 10 -43 12 -53 2z"/>
<path d="M540 2100 c0 -5 14 -10 30 -10 17 0 30 5 30 10 0 6 -13 10 -30 10
-16 0 -30 -4 -30 -10z"/>
<path d="M550 2064 c-11 -12 -10 -18 3 -32 16 -15 18 -15 34 0 13 14 14 20 3
32 -7 9 -16 16 -20 16 -4 0 -13 -7 -20 -16z m40 -14 c0 -5 -9 -10 -20 -10 -11
0 -20 5 -20 10 0 6 9 10 20 10 11 0 20 -4 20 -10z"/>
<path d="M548 1998 c-8 -21 2 -38 22 -38 22 0 32 22 18 41 -8 11 -9 10 -4 -3
4 -13 0 -18 -14 -18 -13 0 -18 5 -14 15 4 8 4 15 1 15 -3 0 -7 -6 -9 -12z"/>
<path d="M566 1904 c-3 -8 -10 -12 -16 -9 -6 3 -7 -1 -4 -9 8 -20 24 -21 24
-1 0 8 4 15 10 15 5 0 7 -8 4 -17 -5 -14 -4 -15 4 -4 11 15 5 41 -8 41 -4 0
-11 -7 -14 -16z"/>
<path d="M540 1850 c0 -5 14 -10 30 -10 17 0 30 5 30 10 0 6 -13 10 -30 10
-16 0 -30 -4 -30 -10z"/>
<path d="M549 1778 c-1 -7 -1 -19 0 -25 1 -7 -5 -13 -14 -13 -8 0 -15 -4 -15
-10 0 -5 18 -10 39 -10 34 0 39 3 37 23 -1 19 -6 23 -26 20 -14 -2 -19 0 -12
3 14 7 16 24 2 24 -5 0 -11 -6 -11 -12z"/>
<path d="M547 1693 c3 -7 13 -13 23 -13 10 0 20 6 23 13 3 8 -5 12 -23 12 -18
0 -26 -4 -23 -12z"/>
<path d="M550 1654 c-11 -12 -10 -18 3 -32 16 -15 18 -15 34 0 13 14 14 20 3
32 -7 9 -16 16 -20 16 -4 0 -13 -7 -20 -16z m40 -14 c0 -5 -9 -10 -20 -10 -11
0 -20 5 -20 10 0 6 9 10 20 10 11 0 20 -4 20 -10z"/>
<path d="M520 1590 c0 -5 11 -11 25 -11 14 -1 30 -2 37 -3 6 -1 13 5 16 12 2
8 -9 12 -37 12 -23 0 -41 -4 -41 -10z"/>
<path d="M538 1559 c-30 -17 -20 -29 22 -29 22 0 40 5 40 10 0 6 -12 10 -27
10 -22 0 -25 2 -13 10 20 13 0 12 -22 -1z"/>
<path d="M542 1455 c0 -16 2 -22 5 -12 2 9 2 23 0 30 -3 6 -5 -1 -5 -18z"/>
<path d="M525 1370 c3 -5 22 -10 41 -10 19 0 34 5 34 10 0 6 -18 10 -41 10
-24 0 -38 -4 -34 -10z"/>
<path d="M1165 1060 c-3 -6 1 -7 9 -4 18 7 21 14 7 14 -6 0 -13 -4 -16 -10z"/>
<path d="M1281 1048 c-1 -19 -7 -28 -18 -29 -14 0 -15 -2 -3 -6 8 -3 18 -10
21 -15 10 -16 16 15 8 47 l-7 30 -1 -27z"/>
<path d="M1315 1061 c-4 -7 0 -8 10 -4 10 3 21 0 27 -8 8 -12 9 -11 5 1 -5 18
-33 25 -42 11z"/>
<path d="M1415 1060 c-3 -6 1 -7 9 -4 18 7 21 14 7 14 -6 0 -13 -4 -16 -10z"/>
<path d="M1475 1060 c-3 -6 1 -7 9 -4 18 7 21 14 7 14 -6 0 -13 -4 -16 -10z"/>
<path d="M4180 1066 c0 -2 7 -7 16 -10 8 -3 12 -2 9 4 -6 10 -25 14 -25 6z"/>
<path d="M4265 1059 c-4 -6 -4 -13 -1 -16 3 -4 6 -1 6 6 0 8 6 11 16 7 8 -3
12 -2 9 4 -8 13 -22 13 -30 -1z"/>
<path d="M4325 1059 c-4 -6 -4 -13 -1 -16 3 -4 6 -1 6 6 0 8 6 11 16 7 8 -3
12 -2 9 4 -8 13 -22 13 -30 -1z"/>
<path d="M9678 1063 c-2 -5 -1 -24 3 -43 l6 -35 2 43 c1 39 -3 52 -11 35z"/>
<path d="M9725 1060 c-3 -6 1 -7 9 -4 18 7 21 14 7 14 -6 0 -13 -4 -16 -10z"/>
<path d="M9841 1048 c-1 -19 -7 -28 -18 -29 -14 0 -15 -2 -3 -6 8 -3 18 -10
21 -15 10 -16 16 15 8 47 l-7 30 -1 -27z"/>
<path d="M9888 1063 c7 -3 16 -2 19 1 4 3 -2 6 -13 5 -11 0 -14 -3 -6 -6z"/>
<path d="M10035 1060 c-3 -6 1 -7 9 -4 18 7 21 14 7 14 -6 0 -13 -4 -16 -10z"/>
<path d="M12825 1060 c-3 -6 1 -7 9 -4 18 7 21 14 7 14 -6 0 -13 -4 -16 -10z"/>
<path d="M12885 1059 c-4 -6 -4 -13 -1 -16 3 -4 6 -1 6 6 0 8 6 11 16 7 8 -3
12 -2 9 4 -8 13 -22 13 -30 -1z"/>
<path d="M15588 1063 c6 -2 18 -2 25 0 6 3 1 5 -13 5 -14 0 -19 -2 -12 -5z"/>
<path d="M15675 1059 c-4 -6 -4 -13 -1 -16 3 -4 6 -1 6 6 0 8 6 11 16 7 8 -3
12 -2 9 4 -8 13 -22 13 -30 -1z"/>
<path d="M1118 1025 c2 -19 6 -35 8 -35 2 0 4 16 4 35 0 19 -4 35 -8 35 -4 0
-6 -16 -4 -35z"/>
<path d="M12528 1025 c2 -19 6 -35 8 -35 2 0 4 16 4 35 0 19 -4 35 -8 35 -4 0
-6 -16 -4 -35z"/>
<path d="M1442 1030 c0 -14 2 -19 5 -12 2 6 2 18 0 25 -3 6 -5 1 -5 -13z"/>
<path d="M1502 1030 c0 -14 2 -19 5 -12 2 6 2 18 0 25 -3 6 -5 1 -5 -13z"/>
<path d="M7112 1030 c0 -14 2 -19 5 -12 2 6 2 18 0 25 -3 6 -5 1 -5 -13z"/>
<path d="M10062 1030 c0 -14 2 -19 5 -12 2 6 2 18 0 25 -3 6 -5 1 -5 -13z"/>
<path d="M12852 1030 c0 -14 2 -19 5 -12 2 6 2 18 0 25 -3 6 -5 1 -5 -13z"/>
<path d="M15732 1030 c0 -14 2 -19 5 -12 2 6 2 18 0 25 -3 6 -5 1 -5 -13z"/>
<path d="M1165 1030 c-3 -6 1 -7 9 -4 18 7 21 14 7 14 -6 0 -13 -4 -16 -10z"/>
<path d="M6890 1033 c5 -2 10 -11 10 -18 0 -7 -5 -16 -10 -18 -6 -3 -5 -4 2
-3 7 2 13 11 13 21 0 10 -6 19 -13 21 -7 1 -8 0 -2 -3z"/>
<path d="M9725 1030 c-3 -6 1 -7 9 -4 18 7 21 14 7 14 -6 0 -13 -4 -16 -10z"/>
<path d="M9878 1033 c6 -2 18 -2 25 0 6 3 1 5 -13 5 -14 0 -19 -2 -12 -5z"/>
<path d="M12750 1033 c5 -2 10 -11 10 -18 0 -7 -5 -16 -10 -18 -6 -3 -5 -4 2
-3 7 2 13 11 13 21 0 10 -6 19 -13 21 -7 1 -8 0 -2 -3z"/>
<path d="M15450 1033 c5 -2 10 -11 10 -18 0 -7 -5 -16 -10 -18 -6 -3 -5 -4 2
-3 7 2 13 11 13 21 0 10 -6 19 -13 21 -7 1 -8 0 -2 -3z"/>
<path d="M4113 1013 c9 -2 23 -2 30 0 6 3 -1 5 -18 5 -16 0 -22 -2 -12 -5z"/>
<path d="M4260 1013 c0 -19 21 -27 33 -13 9 10 9 11 -2 5 -8 -4 -17 -2 -22 6
-6 9 -9 10 -9 2z"/>
<path d="M4320 1013 c0 -19 21 -27 33 -13 9 10 9 11 -2 5 -8 -4 -17 -2 -22 6
-6 9 -9 10 -9 2z"/>
<path d="M6968 1013 c6 -2 18 -2 25 0 6 3 1 5 -13 5 -14 0 -19 -2 -12 -5z"/>
<path d="M7028 1013 c6 -2 18 -2 25 0 6 3 1 5 -13 5 -14 0 -19 -2 -12 -5z"/>
<path d="M12673 1013 c9 -2 23 -2 30 0 6 3 -1 5 -18 5 -16 0 -22 -2 -12 -5z"/>
<path d="M12880 1013 c0 -19 21 -27 33 -13 9 10 9 11 -2 5 -8 -4 -17 -2 -22 6
-6 9 -9 10 -9 2z"/>
<path d="M15528 1013 c6 -2 18 -2 25 0 6 3 1 5 -13 5 -14 0 -19 -2 -12 -5z"/>
<path d="M15670 1013 c0 -19 21 -27 33 -13 9 10 9 11 -2 5 -8 -4 -17 -2 -22 6
-6 9 -9 10 -9 2z"/>
<path d="M1167 999 c7 -7 15 -10 18 -7 3 3 -2 9 -12 12 -14 6 -15 5 -6 -5z"/>
<path d="M1417 999 c7 -7 15 -10 18 -7 3 3 -2 9 -12 12 -14 6 -15 5 -6 -5z"/>
<path d="M1477 999 c7 -7 15 -10 18 -7 3 3 -2 9 -12 12 -14 6 -15 5 -6 -5z"/>
<path d="M4190 1000 c-9 -6 -10 -10 -3 -10 6 0 15 5 18 10 8 12 4 12 -15 0z"/>
<path d="M9727 999 c7 -7 15 -10 18 -7 3 3 -2 9 -12 12 -14 6 -15 5 -6 -5z"/>
<path d="M10037 999 c7 -7 15 -10 18 -7 3 3 -2 9 -12 12 -14 6 -15 5 -6 -5z"/>
<path d="M12827 999 c7 -7 15 -10 18 -7 3 3 -2 9 -12 12 -14 6 -15 5 -6 -5z"/>
<path d="M1323 993 c9 -2 23 -2 30 0 6 3 -1 5 -18 5 -16 0 -22 -2 -12 -5z"/>
<path d="M4028 993 c7 -3 16 -2 19 1 4 3 -2 6 -13 5 -11 0 -14 -3 -6 -6z"/>
<path d="M9888 993 c7 -3 16 -2 19 1 4 3 -2 6 -13 5 -11 0 -14 -3 -6 -6z"/>
<path d="M12588 993 c7 -3 16 -2 19 1 4 3 -2 6 -13 5 -11 0 -14 -3 -6 -6z"/>
<path d="M18169 221 c-17 -18 -29 -40 -29 -56 0 -35 50 -85 85 -85 35 0 85 50
85 85 0 35 -50 85 -85 85 -16 0 -38 -12 -56 -29z m106 -6 c14 -13 25 -36 25
-50 0 -33 -42 -75 -75 -75 -33 0 -75 42 -75 75 0 33 42 75 75 75 14 0 37 -11
50 -25z"/>
<path d="M18197 138 c2 -5 15 -8 28 -8 13 0 26 3 28 8 3 4 -10 7 -28 7 -18 0
-31 -3 -28 -7z"/>
<path d="M17603 213 c9 -2 23 -2 30 0 6 3 -1 5 -18 5 -16 0 -22 -2 -12 -5z"/>
<path d="M17738 193 c7 -3 16 -2 19 1 4 3 -2 6 -13 5 -11 0 -14 -3 -6 -6z"/>
<path d="M15423 163 c9 -2 23 -2 30 0 6 3 -1 5 -18 5 -16 0 -22 -2 -12 -5z"/>
<path d="M15753 163 c9 -2 23 -2 30 0 6 3 -1 5 -18 5 -16 0 -22 -2 -12 -5z"/>
<path d="M15838 163 c7 -3 16 -2 19 1 4 3 -2 6 -13 5 -11 0 -14 -3 -6 -6z"/>
<path d="M16093 163 c9 -2 23 -2 30 0 6 3 -1 5 -18 5 -16 0 -22 -2 -12 -5z"/>
<path d="M16253 163 c9 -2 23 -2 30 0 6 3 -1 5 -18 5 -16 0 -22 -2 -12 -5z"/>
<path d="M16503 163 c9 -2 23 -2 30 0 6 3 -1 5 -18 5 -16 0 -22 -2 -12 -5z"/>
<path d="M16958 163 c6 -2 18 -2 25 0 6 3 1 5 -13 5 -14 0 -19 -2 -12 -5z"/>
<path d="M513 133 c9 -2 23 -2 30 0 6 3 -1 5 -18 5 -16 0 -22 -2 -12 -5z"/>
<path d="M848 133 c7 -3 16 -2 19 1 4 3 -2 6 -13 5 -11 0 -14 -3 -6 -6z"/>
<path d="M1458 133 c7 -3 16 -2 19 1 4 3 -2 6 -13 5 -11 0 -14 -3 -6 -6z"/>
<path d="M1623 133 c9 -2 23 -2 30 0 6 3 -1 5 -18 5 -16 0 -22 -2 -12 -5z"/>
<path d="M17603 133 c9 -2 23 -2 30 0 6 3 -1 5 -18 5 -16 0 -22 -2 -12 -5z"/>
<path d="M17738 133 c7 -3 16 -2 19 1 4 3 -2 6 -13 5 -11 0 -14 -3 -6 -6z"/>
</g>
</svg>
